<svg width="512" height="512" viewBox="0 0 512 512" fill="none" xmlns="http://www.w3.org/2000/svg">
<g clip-path="url(#clip0_134_455)">
<path d="M510.144 284.945L432.8 420.382L322.49 457.292L212.179 494.201L68.9008 432.583L35.9339 334.055L2.96702 235.528L80.311 100.09L190.622 63.1809L300.933 26.2714L444.211 87.8896L477.178 186.417L510.144 284.945Z" fill="#963EA3"/>
<path d="M98.6071 203.528L141.893 112.94L227.184 77.9064L311.371 56.2334L334.395 67.556L357.418 78.8787L403.466 101.524L389.677 106.138L321.605 86.8196L236.605 106.061L152.127 143.526L112.396 198.915L98.6071 203.528Z" fill="white"/>
<path d="M332.786 151.814L346.226 191.981L335.744 216.89L231.606 251.734L207.376 238.439L193.936 198.273L205.287 173.074L309.425 138.23L332.786 151.814ZM223.743 206.486L220.056 213.881L223.764 224.962L231.158 228.649L242.239 224.941L245.926 217.546L242.218 206.466L234.824 202.779L223.743 206.486ZM301.249 180.553L297.562 187.948L301.27 199.029L308.664 202.716L319.745 199.008L323.432 191.613L319.725 180.532L312.33 176.846L301.249 180.553Z" fill="white"/>
<path d="M492.188 136.471L482.816 263.697L467.133 295.147L419.998 310.919L362.279 281.726L388.458 216.658L430.993 202.426L472.727 78.3094L492.188 136.471ZM406.444 234.056L397.83 251.33L406.492 277.216L423.766 285.828L449.655 277.166L458.269 259.892L449.607 234.006L432.333 225.394L406.444 234.056Z" fill="white"/>
<path d="M41.5002 273.5L134.344 380.308L165.795 395.989L212.926 380.219L241.45 322.168L181.385 285.951L138.852 300.182L18.9723 209.261L41.5002 273.5ZM177.493 310.671L194.767 319.284L203.429 345.172L194.817 362.447L168.93 371.109L151.656 362.496L142.994 336.607L151.606 319.333L177.493 310.671Z" fill="white"/>
</g>
<defs>
<clipPath id="clip0_134_455">
<rect width="512" height="512" fill="white"/>
</clipPath>
</defs>
</svg>
